<svg width="24" height="24" viewBox="0 0 24 24" fill="none" xmlns="http://www.w3.org/2000/svg">
<path fill-rule="evenodd" clip-rule="evenodd" d="M16.7734 7.22748C17.0663 7.52038 17.0663 7.99525 16.7734 8.28814L13.0611 12.0005L16.7734 15.7128C17.0663 16.0057 17.0663 16.4805 16.7734 16.7734C16.4805 17.0663 16.0057 17.0663 15.7128 16.7734L12.0005 13.0611L8.28814 16.7734C7.99525 17.0663 7.52038 17.0663 7.22748 16.7734C6.93459 16.4805 6.93459 16.0057 7.22748 15.7128L10.9398 12.0005L7.22748 8.28814C6.93459 7.99525 6.93459 7.52038 7.22748 7.22748C7.52038 6.93459 7.99525 6.93459 8.28814 7.22748L12.0005 10.9398L15.7128 7.22748C16.0057 6.93459 16.4805 6.93459 16.7734 7.22748Z" fill="#888A9B"/>
</svg>
