<svg width="18" height="18" viewBox="0 0 18 18" fill="none" xmlns="http://www.w3.org/2000/svg">
<path fill-rule="evenodd" clip-rule="evenodd" d="M9 1.75C4.99594 1.75 1.75 4.99594 1.75 9C1.75 13.0041 4.99594 16.25 9 16.25C13.0041 16.25 16.25 13.0041 16.25 9C16.25 4.99594 13.0041 1.75 9 1.75ZM0.25 9C0.25 4.16751 4.16751 0.25 9 0.25C13.8325 0.25 17.75 4.16751 17.75 9C17.75 13.8325 13.8325 17.75 9 17.75C4.16751 17.75 0.25 13.8325 0.25 9Z" fill="#1D77FF"/>
<path fill-rule="evenodd" clip-rule="evenodd" d="M9 4.75C9.41421 4.75 9.75 5.08579 9.75 5.5L9.75 8.25L12.5 8.25C12.9142 8.25 13.25 8.58579 13.25 9C13.25 9.41421 12.9142 9.75 12.5 9.75H9.75V12.5C9.75 12.9142 9.41421 13.25 9 13.25C8.58579 13.25 8.25 12.9142 8.25 12.5V9.75L5.5 9.75C5.08579 9.75 4.75 9.41421 4.75 9C4.75 8.58579 5.08579 8.25 5.5 8.25H8.25L8.25 5.5C8.25 5.08579 8.58579 4.75 9 4.75Z" fill="#1D77FF"/>
</svg>
