<svg width="10" height="10" viewBox="0 0 10 10" fill="none" xmlns="http://www.w3.org/2000/svg">
<path fill-rule="evenodd" clip-rule="evenodd" d="M9.77293 0.227025C10.0658 0.519918 10.0658 0.994792 9.77293 1.28768L6.06063 5L9.77293 8.71231C10.0658 9.0052 10.0658 9.48007 9.77293 9.77297C9.48004 10.0659 9.00517 10.0659 8.71227 9.77297L4.99996 6.06066L1.28765 9.77297C0.994761 10.0659 0.519887 10.0659 0.226994 9.77297C-0.0658991 9.48007 -0.0658991 9.0052 0.226994 8.71231L3.9393 5L0.226994 1.28769C-0.0658991 0.994792 -0.0658991 0.519918 0.226994 0.227025C0.519887 -0.0658683 0.994761 -0.0658682 1.28765 0.227025L4.99996 3.93934L8.71227 0.227025C9.00517 -0.0658686 9.48004 -0.0658686 9.77293 0.227025Z" fill="#888A9B"/>
</svg>
