<svg width="24" height="34" viewBox="0 0 24 34" fill="none" xmlns="http://www.w3.org/2000/svg">
<path fill-rule="evenodd" clip-rule="evenodd" d="M8.75 9C8.75 8.58579 9.08579 8.25 9.5 8.25H14.5C14.9142 8.25 15.25 8.58579 15.25 9V10.75H18.5C18.9142 10.75 19.25 11.0858 19.25 11.5C19.25 11.9142 18.9142 12.25 18.5 12.25H17.75V24.5C17.75 24.9142 17.4142 25.25 17 25.25H7C6.58579 25.25 6.25 24.9142 6.25 24.5V12.25H5.5C5.08579 12.25 4.75 11.9142 4.75 11.5C4.75 11.0858 5.08579 10.75 5.5 10.75H8.75V9ZM10.25 10.75H13.75V9.75H10.25V10.75ZM7.75 12.25V23.75H16.25V12.25H7.75ZM10 13.75C10.4142 13.75 10.75 14.0858 10.75 14.5V21.3571C10.75 21.7714 10.4142 22.1071 10 22.1071C9.58579 22.1071 9.25 21.7714 9.25 21.3571V14.5C9.25 14.0858 9.58579 13.75 10 13.75ZM14 13.75C14.4142 13.75 14.75 14.0858 14.75 14.5V21.3571C14.75 21.7714 14.4142 22.1071 14 22.1071C13.5858 22.1071 13.25 21.7714 13.25 21.3571V14.5C13.25 14.0858 13.5858 13.75 14 13.75Z" fill="#1D77FF"/>
</svg>
