<svg width="24" height="34" viewBox="0 0 24 24" fill="none" xmlns="http://www.w3.org/2000/svg">
<path fill-rule="evenodd" clip-rule="evenodd" d="M19.5317 7.46997C19.8246 7.76287 19.8246 8.23774 19.5317 8.53063L9.69926 18.3631C9.56286 18.4995 9.37915 18.5781 9.1863 18.5825L6.2908 18.6496C6.08592 18.6543 5.88802 18.575 5.74311 18.4301C5.59819 18.2852 5.51889 18.0873 5.52364 17.8824L5.59071 14.9869C5.59517 14.7941 5.67377 14.6104 5.81017 14.474L15.6426 4.64154C15.9355 4.34865 16.4104 4.34865 16.7033 4.64154L19.5317 7.46997ZM17.9407 8.0003L16.1729 6.23254L7.08334 15.3221L7.04143 17.1318L8.85111 17.0899L17.9407 8.0003Z" fill="#1D77FF"/>
</svg>
